<svg width="16" height="16" viewBox="0 0 16 16" fill="none" xmlns="http://www.w3.org/2000/svg">
<path fill-rule="evenodd" clip-rule="evenodd" d="M9.85578 10.3441C9.02304 11.0643 7.9374 11.5 6.75 11.5C4.12665 11.5 2 9.37335 2 6.75C2 4.12665 4.12665 2 6.75 2C9.37335 2 11.5 4.12665 11.5 6.75C11.5 7.82559 11.1425 8.81768 10.5398 9.61393L14.0567 13.1308L13.3496 13.8379L9.85578 10.3441ZM10.5 6.75C10.5 8.82107 8.82107 10.5 6.75 10.5C4.67893 10.5 3 8.82107 3 6.75C3 4.67893 4.67893 3 6.75 3C8.82107 3 10.5 4.67893 10.5 6.75Z" fill="#A6ADBD"/>
</svg>
